<mxfile host="app.diagrams.net" modified="2022-02-11T06:43:34.981Z" agent="5.0 (Windows NT 10.0; Win64; x64) AppleWebKit/537.36 (KHTML, like Gecko) Chrome/98.0.4758.82 Safari/537.36" etag="i9o62XoeCjb_AS6G9ZOM" version="16.5.6" type="github">
  <diagram id="C5RBs43oDa-KdzZeNtuy" name="Page-1">
    <mxGraphModel dx="1022" dy="346" grid="1" gridSize="10" guides="1" tooltips="1" connect="1" arrows="1" fold="1" page="1" pageScale="1" pageWidth="827" pageHeight="1169" math="0" shadow="0">
      <root>
        <mxCell id="WIyWlLk6GJQsqaUBKTNV-0" />
        <mxCell id="WIyWlLk6GJQsqaUBKTNV-1" parent="WIyWlLk6GJQsqaUBKTNV-0" />
        <mxCell id="wCMmacWut8D4qa3MLW9j-19" value="&lt;div style=&quot;text-align: left&quot;&gt;&lt;span style=&quot;text-align: center&quot;&gt;政策解读&lt;/span&gt;&lt;br&gt;&lt;/div&gt;" style="rounded=1;whiteSpace=wrap;html=1;fontSize=12;glass=0;strokeWidth=1;shadow=0;" vertex="1" parent="WIyWlLk6GJQsqaUBKTNV-1">
          <mxGeometry x="100" y="190" width="120" height="40" as="geometry" />
        </mxCell>
        <mxCell id="wCMmacWut8D4qa3MLW9j-20" value="&lt;div style=&quot;text-align: left&quot;&gt;&lt;span style=&quot;text-align: center&quot;&gt;养老产品推荐&lt;/span&gt;&lt;br&gt;&lt;/div&gt;" style="rounded=1;whiteSpace=wrap;html=1;fontSize=12;glass=0;strokeWidth=1;shadow=0;" vertex="1" parent="WIyWlLk6GJQsqaUBKTNV-1">
          <mxGeometry x="600" y="190" width="120" height="40" as="geometry" />
        </mxCell>
        <mxCell id="wCMmacWut8D4qa3MLW9j-21" value="" style="edgeStyle=orthogonalEdgeStyle;rounded=0;orthogonalLoop=1;jettySize=auto;html=1;" edge="1" parent="WIyWlLk6GJQsqaUBKTNV-1" source="wCMmacWut8D4qa3MLW9j-22" target="wCMmacWut8D4qa3MLW9j-33">
          <mxGeometry relative="1" as="geometry" />
        </mxCell>
        <mxCell id="wCMmacWut8D4qa3MLW9j-34" style="edgeStyle=orthogonalEdgeStyle;rounded=0;orthogonalLoop=1;jettySize=auto;html=1;exitX=0.25;exitY=1;exitDx=0;exitDy=0;" edge="1" parent="WIyWlLk6GJQsqaUBKTNV-1" source="wCMmacWut8D4qa3MLW9j-22" target="wCMmacWut8D4qa3MLW9j-19">
          <mxGeometry relative="1" as="geometry" />
        </mxCell>
        <mxCell id="wCMmacWut8D4qa3MLW9j-35" style="edgeStyle=orthogonalEdgeStyle;rounded=0;orthogonalLoop=1;jettySize=auto;html=1;exitX=0.75;exitY=1;exitDx=0;exitDy=0;entryX=0.5;entryY=0;entryDx=0;entryDy=0;" edge="1" parent="WIyWlLk6GJQsqaUBKTNV-1" source="wCMmacWut8D4qa3MLW9j-22" target="wCMmacWut8D4qa3MLW9j-20">
          <mxGeometry relative="1" as="geometry" />
        </mxCell>
        <mxCell id="wCMmacWut8D4qa3MLW9j-22" value="”适优家“养老服务信息平台" style="rounded=1;whiteSpace=wrap;html=1;fontSize=12;glass=0;strokeWidth=1;shadow=0;" vertex="1" parent="WIyWlLk6GJQsqaUBKTNV-1">
          <mxGeometry x="320" y="90" width="180" height="40" as="geometry" />
        </mxCell>
        <mxCell id="wCMmacWut8D4qa3MLW9j-23" value="旅居式养老模式系统" style="rounded=1;whiteSpace=wrap;html=1;fontSize=12;glass=0;strokeWidth=1;shadow=0;" vertex="1" parent="WIyWlLk6GJQsqaUBKTNV-1">
          <mxGeometry x="460" y="280" width="60" height="60" as="geometry" />
        </mxCell>
        <mxCell id="wCMmacWut8D4qa3MLW9j-24" value="居家养老模式系统" style="rounded=1;whiteSpace=wrap;html=1;fontSize=12;glass=0;strokeWidth=1;shadow=0;" vertex="1" parent="WIyWlLk6GJQsqaUBKTNV-1">
          <mxGeometry x="220" y="280" width="60" height="60" as="geometry" />
        </mxCell>
        <mxCell id="wCMmacWut8D4qa3MLW9j-37" style="edgeStyle=orthogonalEdgeStyle;shape=flexArrow;rounded=0;orthogonalLoop=1;jettySize=auto;html=1;" edge="1" parent="WIyWlLk6GJQsqaUBKTNV-1">
          <mxGeometry relative="1" as="geometry">
            <mxPoint x="410" y="420" as="targetPoint" />
            <mxPoint x="410" y="360" as="sourcePoint" />
          </mxGeometry>
        </mxCell>
        <mxCell id="wCMmacWut8D4qa3MLW9j-25" value="机构养老模式系统" style="rounded=1;whiteSpace=wrap;html=1;fontSize=12;glass=0;strokeWidth=1;shadow=0;" vertex="1" parent="WIyWlLk6GJQsqaUBKTNV-1">
          <mxGeometry x="380" y="280" width="60" height="60" as="geometry" />
        </mxCell>
        <mxCell id="wCMmacWut8D4qa3MLW9j-26" value="医养结合养老模式系统" style="rounded=1;whiteSpace=wrap;html=1;fontSize=12;glass=0;strokeWidth=1;shadow=0;" vertex="1" parent="WIyWlLk6GJQsqaUBKTNV-1">
          <mxGeometry x="540" y="280" width="60" height="60" as="geometry" />
        </mxCell>
        <mxCell id="wCMmacWut8D4qa3MLW9j-27" value="社区养老模式系统" style="rounded=1;whiteSpace=wrap;html=1;fontSize=12;glass=0;strokeWidth=1;shadow=0;" vertex="1" parent="WIyWlLk6GJQsqaUBKTNV-1">
          <mxGeometry x="300" y="280" width="60" height="60" as="geometry" />
        </mxCell>
        <mxCell id="wCMmacWut8D4qa3MLW9j-28" style="edgeStyle=orthogonalEdgeStyle;rounded=0;orthogonalLoop=1;jettySize=auto;html=1;exitX=0.5;exitY=1;exitDx=0;exitDy=0;entryX=0.5;entryY=0;entryDx=0;entryDy=0;" edge="1" parent="WIyWlLk6GJQsqaUBKTNV-1" source="wCMmacWut8D4qa3MLW9j-33" target="wCMmacWut8D4qa3MLW9j-25">
          <mxGeometry relative="1" as="geometry" />
        </mxCell>
        <mxCell id="wCMmacWut8D4qa3MLW9j-29" style="edgeStyle=orthogonalEdgeStyle;rounded=0;orthogonalLoop=1;jettySize=auto;html=1;exitX=0.25;exitY=1;exitDx=0;exitDy=0;entryX=0.5;entryY=0;entryDx=0;entryDy=0;exitPerimeter=0;" edge="1" parent="WIyWlLk6GJQsqaUBKTNV-1" source="wCMmacWut8D4qa3MLW9j-33" target="wCMmacWut8D4qa3MLW9j-24">
          <mxGeometry relative="1" as="geometry">
            <Array as="points">
              <mxPoint x="320" y="230" />
              <mxPoint x="320" y="255" />
              <mxPoint x="250" y="255" />
            </Array>
          </mxGeometry>
        </mxCell>
        <mxCell id="wCMmacWut8D4qa3MLW9j-30" style="edgeStyle=orthogonalEdgeStyle;rounded=0;orthogonalLoop=1;jettySize=auto;html=1;exitX=0.25;exitY=1;exitDx=0;exitDy=0;entryX=0.644;entryY=0.006;entryDx=0;entryDy=0;entryPerimeter=0;" edge="1" parent="WIyWlLk6GJQsqaUBKTNV-1" source="wCMmacWut8D4qa3MLW9j-33" target="wCMmacWut8D4qa3MLW9j-27">
          <mxGeometry relative="1" as="geometry">
            <Array as="points">
              <mxPoint x="365" y="255" />
              <mxPoint x="339" y="255" />
            </Array>
          </mxGeometry>
        </mxCell>
        <mxCell id="wCMmacWut8D4qa3MLW9j-31" style="edgeStyle=orthogonalEdgeStyle;rounded=0;orthogonalLoop=1;jettySize=auto;html=1;exitX=0.75;exitY=1;exitDx=0;exitDy=0;entryX=0.5;entryY=0;entryDx=0;entryDy=0;" edge="1" parent="WIyWlLk6GJQsqaUBKTNV-1" source="wCMmacWut8D4qa3MLW9j-33" target="wCMmacWut8D4qa3MLW9j-23">
          <mxGeometry relative="1" as="geometry" />
        </mxCell>
        <mxCell id="wCMmacWut8D4qa3MLW9j-32" style="edgeStyle=orthogonalEdgeStyle;rounded=0;orthogonalLoop=1;jettySize=auto;html=1;exitX=1;exitY=1;exitDx=0;exitDy=0;entryX=0.5;entryY=0;entryDx=0;entryDy=0;" edge="1" parent="WIyWlLk6GJQsqaUBKTNV-1" source="wCMmacWut8D4qa3MLW9j-33" target="wCMmacWut8D4qa3MLW9j-26">
          <mxGeometry relative="1" as="geometry">
            <Array as="points">
              <mxPoint x="500" y="255" />
              <mxPoint x="570" y="255" />
            </Array>
          </mxGeometry>
        </mxCell>
        <mxCell id="wCMmacWut8D4qa3MLW9j-33" value="养老需求分析" style="rounded=1;whiteSpace=wrap;html=1;fontSize=12;glass=0;strokeWidth=1;shadow=0;" vertex="1" parent="WIyWlLk6GJQsqaUBKTNV-1">
          <mxGeometry x="320" y="190" width="180" height="40" as="geometry" />
        </mxCell>
        <mxCell id="wCMmacWut8D4qa3MLW9j-36" value="&lt;span&gt;个性化养老方案&lt;/span&gt;" style="rounded=1;whiteSpace=wrap;html=1;fontSize=12;glass=0;strokeWidth=1;shadow=0;" vertex="1" parent="WIyWlLk6GJQsqaUBKTNV-1">
          <mxGeometry x="320" y="430" width="180" height="40" as="geometry" />
        </mxCell>
      </root>
    </mxGraphModel>
  </diagram>
</mxfile>
